<?xml version="1.0" standalone="no"?>
<!DOCTYPE svg PUBLIC "-//W3C//DTD SVG 20010904//EN"
 "http://www.w3.org/TR/2001/REC-SVG-20010904/DTD/svg10.dtd">
<svg version="1.0" xmlns="http://www.w3.org/2000/svg"
 width="498.000000pt" height="278.000000pt" viewBox="0 0 498.000000 278.000000"
 preserveAspectRatio="xMidYMid meet">

<g transform="translate(0.000000,278.000000) scale(0.100000,-0.100000)"
fill="#000000" stroke="none">
<path d="M0 2685 c0 -52 3 -95 8 -95 4 0 13 -9 20 -20 11 -18 10 -25 -8 -49
-19 -28 -20 -43 -20 -493 l0 -464 75 -23 c41 -13 77 -23 80 -22 2 0 24 -7 47
-15 24 -9 52 -17 63 -20 11 -2 31 -8 45 -13 137 -50 175 -52 233 -12 62 42 91
47 128 21 30 -22 40 -65 19 -86 -17 -17 44 -77 70 -69 12 4 72 -11 153 -38 72
-24 182 -59 242 -77 61 -18 115 -36 120 -40 6 -4 21 -10 35 -13 130 -29 229
-75 254 -118 23 -38 32 -115 16 -134 -7 -8 -16 -13 -20 -10 -5 3 -12 1 -15 -5
-4 -6 -3 -9 2 -8 4 2 8 -1 8 -7 0 -5 -4 -9 -8 -7 -5 1 -6 -2 -2 -7 3 -6 13 -7
23 -4 9 3 14 2 10 -2 -5 -5 1 -14 11 -21 10 -8 22 -26 26 -41 3 -15 14 -33 23
-41 9 -7 11 -10 4 -7 -11 6 -12 3 -4 -12 6 -11 18 -25 26 -32 13 -11 109 -175
111 -191 1 -3 5 -39 9 -80 4 -41 16 -134 27 -207 18 -130 18 -133 -1 -178
l-19 -45 714 0 c440 0 715 4 715 9 0 6 -5 13 -10 16 -8 5 -7 12 2 23 9 11 9
14 1 9 -8 -5 -15 2 -19 20 -7 30 -53 85 -64 78 -5 -3 -10 2 -14 10 -3 9 -18
15 -36 15 -16 0 -30 3 -30 8 0 4 -19 8 -43 10 -46 3 -78 24 -56 37 8 6 10 4 4
-5 -5 -8 -4 -11 3 -6 6 4 9 13 6 21 -3 8 1 24 10 37 9 13 16 17 16 9 0 -19 11
-7 14 16 2 10 10 17 19 17 10 -1 13 4 10 14 -4 9 -2 13 3 9 6 -3 16 3 24 13 8
10 18 16 23 13 4 -3 3 4 -4 15 -14 23 -5 42 52 107 26 30 37 35 73 35 22 0 59
-5 81 -11 22 -6 46 -11 53 -11 6 -1 12 -5 12 -10 0 -4 3 -7 8 -6 4 1 21 -5 37
-12 17 -7 48 -19 70 -25 55 -17 162 -55 210 -75 22 -9 66 -25 98 -35 73 -22
95 -13 130 54 13 25 37 69 52 96 16 28 34 59 40 70 22 41 65 105 71 105 3 0 2
-5 -2 -11 -4 -8 0 -8 15 0 11 7 21 18 21 26 0 7 4 16 9 20 6 3 8 -11 6 -32 -3
-29 -2 -33 5 -17 13 33 27 36 24 6 -1 -15 -3 -28 -4 -29 -1 -2 -3 -6 -5 -10
-1 -5 -5 -15 -8 -23 -11 -26 -49 -144 -52 -162 -2 -10 -16 -45 -31 -79 -26
-57 -27 -62 -12 -87 9 -14 22 -26 29 -28 8 -1 61 -20 118 -43 58 -22 113 -41
122 -41 10 0 20 -4 23 -8 3 -5 52 -24 108 -41 152 -48 242 -83 254 -98 10 -11
13 -12 17 -1 4 10 6 10 6 1 1 -10 35 -13 136 -13 l135 0 0 1390 0 1390 -90 0
-90 0 0 -73 c0 -42 7 -94 16 -121 14 -41 14 -51 3 -73 -12 -22 -14 -23 -21 -6
-4 10 -5 -1 -1 -24 6 -50 -4 -116 -17 -108 -6 3 -7 -1 -4 -10 5 -12 10 -13 17
-6 6 6 14 11 17 11 6 0 34 -105 30 -112 -1 -2 3 -15 9 -31 6 -15 13 -39 15
-53 5 -24 1 -23 -39 19 -34 34 -45 53 -46 78 -1 19 -9 -7 -19 -61 -10 -52 -30
-141 -44 -196 -15 -56 -26 -106 -25 -110 1 -5 0 -12 -1 -16 -5 -14 -6 -23 -15
-63 -4 -22 -11 -44 -15 -50 -4 -5 -13 -28 -20 -50 -15 -47 -34 -80 -69 -118
-20 -22 -22 -27 -8 -27 9 0 17 -5 17 -11 0 -5 -5 -7 -11 -3 -8 4 -9 0 -4 -15
4 -14 2 -21 -7 -21 -7 0 -4 -6 7 -12 11 -6 22 -13 24 -15 8 -6 -62 -73 -77
-73 -19 0 -97 55 -121 86 -23 30 -28 64 -8 64 6 0 27 -9 45 -20 36 -22 46 -25
37 -11 -3 6 4 26 15 46 26 47 25 72 -5 137 -30 64 -31 92 -6 159 25 64 119
209 136 209 9 0 12 11 8 39 -4 32 -1 44 19 64 33 33 52 96 44 144 -4 21 -20
70 -36 108 -33 83 -45 160 -31 198 16 41 29 32 29 -18 -1 -25 4 -51 10 -57 9
-9 9 -4 3 20 -19 65 7 29 38 -53 17 -46 37 -87 42 -91 7 -4 7 0 0 14 -6 11
-11 32 -11 46 0 14 -4 27 -10 31 -5 3 -7 12 -3 20 3 8 1 15 -3 15 -5 0 -10 10
-11 23 -1 12 -5 57 -9 100 l-7 77 -174 0 -173 0 7 -27 c3 -16 17 -53 29 -84
13 -32 26 -70 28 -86 3 -15 15 -55 27 -88 28 -79 39 -125 29 -125 -16 0 -59
78 -65 120 -8 54 -35 119 -59 143 -18 18 -48 125 -40 139 3 5 -960 8 -2140 8
l-2146 0 0 -95z m4281 -28 c32 -21 53 -67 31 -67 -18 0 -20 -51 -4 -101 14
-45 14 -53 -1 -102 -9 -30 -17 -72 -17 -95 0 -45 -18 -94 -31 -86 -5 2 -8 64
-8 137 0 129 -1 134 -36 214 -40 93 -41 98 -17 112 26 16 46 13 83 -12z m-101
-41 c0 -8 13 -43 30 -78 27 -57 30 -72 30 -167 0 -106 -6 -122 -21 -54 -4 21
-19 85 -33 141 -27 108 -33 172 -16 172 6 0 10 -6 10 -14z m-4020 -551 c10
-11 9 -18 -4 -30 -14 -14 -16 -14 -16 -2 0 9 -3 22 -6 31 -8 20 10 21 26 1z
m26 -60 c-3 17 -3 24 0 17 3 -6 9 -10 13 -7 5 2 8 -6 7 -18 -1 -17 -7 -22 -26
-22 -24 0 -27 7 -20 48 1 6 8 -1 16 -18 l15 -30 -5 30z m2044 -64 c0 -5 24
-32 53 -60 48 -47 50 -51 31 -57 -14 -3 -21 -12 -19 -22 2 -10 4 -21 4 -26 1
-4 13 -5 27 -2 20 5 30 2 41 -14 11 -15 22 -20 37 -16 12 3 47 1 77 -3 35 -6
58 -5 67 1 6 6 12 7 12 3 0 -4 7 -2 15 5 27 22 5 33 -55 26 -68 -8 -96 -1 -76
19 13 13 160 24 171 13 3 -3 1 -17 -5 -32 -5 -15 -10 -51 -10 -79 0 -83 -42
-160 -129 -235 -93 -80 -121 -94 -179 -90 -32 2 -51 -2 -60 -12 -10 -11 -12
-11 -6 -1 5 10 3 12 -5 7 -8 -5 -10 -24 -7 -57 5 -38 1 -59 -14 -89 -22 -44
-25 -54 -10 -45 15 10 12 -92 -4 -123 -8 -15 -21 -65 -31 -111 -9 -46 -23
-106 -32 -133 -12 -42 -16 -48 -29 -37 -26 21 -36 49 -41 113 -2 33 -6 73 -7
89 -3 28 17 144 27 153 3 3 13 -7 22 -23 l16 -28 -6 30 c-14 75 -17 154 -6
187 6 19 16 61 21 92 5 32 16 71 24 88 13 25 14 35 3 53 -67 120 -86 167 -92
222 -8 70 6 91 36 55 21 -26 29 -28 29 -6 0 15 2 15 25 0 13 -9 34 -16 45 -16
19 0 21 4 14 32 -6 30 -5 31 10 19 23 -19 29 -9 15 25 -14 37 -19 94 -8 94 5
0 9 -4 9 -9z m143 -17 c44 -8 49 -20 7 -18 -63 3 -70 4 -70 14 0 12 11 12 63
4z m-209 -29 c3 -8 1 -15 -4 -15 -6 0 -10 7 -10 15 0 8 2 15 4 15 2 0 6 -7 10
-15z m300 -53 c12 -7 -21 -20 -53 -21 -27 -1 -61 25 -61 45 0 10 11 10 53 -3
28 -8 56 -18 61 -21z m-326 9 c3 -8 -1 -12 -9 -9 -7 2 -15 10 -17 17 -3 8 1
12 9 9 7 -2 15 -10 17 -17z m-100 -133 c17 -17 15 -38 -3 -38 -12 0 -35 28
-35 44 0 11 26 6 38 -6z m730 -106 c3 -16 -2 -22 -16 -22 -24 0 -38 30 -20 42
19 12 33 4 36 -20z m-77 -156 c26 16 3 -66 -47 -162 -93 -183 -217 -401 -234
-414 -4 -3 -10 -15 -14 -28 -4 -12 -16 -27 -27 -32 -10 -6 -19 -16 -19 -23 -1
-20 -33 -53 -59 -60 -23 -6 -23 -5 -17 61 3 37 8 107 12 155 5 75 11 97 37
140 39 65 39 65 44 50 6 -16 33 -17 33 -2 0 5 5 7 11 4 7 -5 9 9 7 40 l-3 47
55 30 c68 38 94 61 133 118 41 62 71 93 75 81 2 -6 8 -9 13 -5z m-1894 -46 c8
0 7 -9 -5 -30 -25 -43 -52 -40 -52 6 0 33 2 36 23 30 12 -3 27 -6 34 -6z"/>
<path d="M2416 1113 c-6 -14 -5 -15 5 -6 7 7 10 15 7 18 -3 3 -9 -2 -12 -12z"/>
<path d="M4714 2762 c2 -21 21 -19 23 3 l3 20 -9 -20 c-6 -16 -9 -17 -13 -5
-3 8 -4 9 -4 2z"/>
<path d="M4751 2644 c0 -11 3 -14 6 -6 3 7 2 16 -1 19 -3 4 -6 -2 -5 -13z"/>
<path d="M4761 2594 c0 -11 3 -14 6 -6 3 7 2 16 -1 19 -3 4 -6 -2 -5 -13z"/>
<path d="M4515 1540 c-3 -5 -1 -10 4 -10 6 0 11 5 11 10 0 6 -2 10 -4 10 -3 0
-8 -4 -11 -10z"/>
<path d="M0 1250 c0 -122 4 -200 10 -200 5 0 27 16 49 36 22 20 55 46 74 58
68 41 198 158 194 175 -2 9 -9 15 -15 14 -7 -2 -12 1 -12 5 0 4 -17 14 -37 21
-21 7 -54 18 -73 26 -67 26 -75 28 -87 26 -7 -1 -13 4 -13 10 0 7 -3 10 -6 6
-4 -3 -22 0 -41 8 -20 8 -37 15 -39 15 -2 0 -4 -90 -4 -200z"/>
<path d="M485 1202 c-30 -24 -55 -49 -55 -54 0 -5 -4 -6 -10 -3 -5 3 -10 2
-10 -4 0 -6 -11 -21 -25 -35 -14 -14 -25 -30 -25 -36 0 -5 -4 -10 -9 -10 -5 0
-13 -9 -16 -20 -4 -11 -11 -18 -16 -15 -5 3 -6 -1 -2 -10 5 -13 7 -14 14 -3 7
10 9 9 9 -4 0 -16 -11 -23 -33 -19 -5 1 -6 -3 -2 -9 4 -7 12 -7 26 0 11 7 19
7 19 1 0 -5 -5 -12 -10 -14 -6 -3 -5 -4 2 -3 15 3 18 33 6 59 -5 9 -6 17 -3
17 3 0 13 -15 21 -32 13 -28 14 -29 10 -7 -4 16 0 31 7 38 10 8 14 7 14 -4 0
-8 -4 -12 -9 -9 -11 7 -10 -7 2 -26 9 -13 10 -13 10 0 0 13 1 13 10 0 8 -12
10 -12 10 -1 0 11 3 11 15 1 8 -6 13 -15 12 -18 -1 -4 6 -18 15 -31 16 -23 17
-23 15 -3 0 11 -6 20 -11 19 -6 -1 -10 7 -10 18 0 11 5 19 10 18 6 -1 11 5 11
13 0 18 -2 18 -20 -1 -13 -12 -15 -12 -19 3 -4 15 0 17 26 14 17 -2 53 -3 79
-3 34 0 46 -3 41 -12 -5 -9 -3 -9 7 1 18 16 46 15 52 -3 4 -8 15 -12 27 -10
15 3 23 -3 30 -20 13 -34 20 -31 11 3 -8 27 -7 28 26 25 41 -3 65 -28 58 -60
-3 -12 -1 -25 5 -28 6 -4 7 1 3 11 -4 12 -3 15 5 10 8 -5 10 -1 5 10 -4 12 -3
15 6 10 7 -5 11 -17 8 -27 -3 -10 -1 -22 4 -25 5 -3 9 -2 8 3 -1 4 -1 17 0 27
1 19 1 19 14 1 11 -14 16 -15 22 -5 6 9 4 11 -5 5 -8 -5 -11 -3 -8 6 3 9 19
14 45 13 31 0 40 3 36 14 -5 11 -7 11 -14 0 -7 -10 -9 -10 -9 2 0 13 -1 13
-10 0 -9 -13 -10 -13 -10 0 0 9 -3 11 -8 4 -4 -6 -13 -4 -24 8 -17 17 -17 18
5 14 12 -3 23 -5 25 -7 8 -6 29 -4 41 5 11 8 13 8 8 0 -4 -7 0 -17 8 -24 8 -7
12 -17 8 -23 -3 -6 -1 -7 6 -3 6 4 9 12 6 17 -4 5 10 9 30 9 35 0 37 -1 31
-27 -5 -21 -4 -24 4 -13 9 14 14 7 11 -13 -1 -5 3 -6 9 -2 8 5 7 11 -1 21 -6
8 -9 17 -6 21 4 3 1 13 -6 21 -11 13 -9 14 11 1 12 -8 22 -17 22 -22 0 -4 -6
-5 -12 -1 -9 5 -9 2 1 -9 14 -18 22 -22 20 -9 -1 4 -1 16 0 26 1 20 1 20 17 0
8 -10 13 -13 9 -7 -5 10 0 11 17 4 13 -4 29 -6 36 -4 7 3 12 -3 12 -14 0 -15
-2 -16 -10 -3 -8 12 -10 12 -10 1 0 -11 -3 -11 -17 0 -16 12 -17 12 -5 -2 12
-17 50 -18 85 -4 14 6 16 3 11 -11 -5 -18 -5 -18 6 -1 11 18 12 18 27 0 8 -10
11 -12 8 -5 -4 7 1 22 10 32 12 14 13 20 4 26 -7 4 -10 3 -5 -4 3 -6 2 -13 -3
-16 -5 -3 -11 3 -14 14 -7 28 -35 25 -43 -4 -8 -33 -34 -43 -34 -13 0 18 2 19
10 7 5 -8 10 -10 11 -5 0 6 2 17 4 26 2 10 -5 15 -21 15 -13 0 -24 -5 -24 -10
0 -6 -4 -4 -9 4 -6 8 -7 18 -5 22 3 4 -3 8 -13 9 -36 1 -56 8 -64 21 -5 7 -9
9 -9 5 0 -5 -13 1 -30 13 -16 12 -34 19 -38 16 -5 -3 -18 1 -28 9 -10 8 -29
15 -41 15 -12 0 -29 8 -39 18 -10 9 -18 15 -18 12 -1 -2 -21 4 -46 15 -25 10
-52 17 -62 16 -9 -1 -19 3 -23 9 -3 5 -16 10 -29 10 -12 0 -26 4 -32 8 -13 13
-95 44 -122 47 -15 1 -42 -13 -77 -43z m542 -155 c0 -8 -6 -14 -14 -14 -9 0
-10 4 -2 14 6 7 12 13 14 13 1 0 2 -6 2 -13z m-211 -57 c9 0 13 4 10 9 -4 5 5
4 19 -2 26 -13 29 -32 4 -32 -20 -1 -59 25 -58 39 0 7 2 6 6 -1 2 -7 11 -13
19 -13z m447 -19 c3 -12 0 -18 -9 -17 -19 3 -27 13 -19 25 10 17 22 13 28 -8z"/>
<path d="M630 996 c0 -2 8 -10 18 -17 15 -13 16 -12 3 4 -13 16 -21 21 -21 13z"/>
<path d="M677 969 c23 -39 40 -53 40 -34 0 8 -4 12 -8 10 -7 -5 -23 24 -21 37
1 3 -5 9 -14 12 -12 5 -12 0 3 -25z"/>
<path d="M720 991 c0 -6 4 -13 10 -16 6 -3 7 1 4 9 -7 18 -14 21 -14 7z"/>
<path d="M756 983 c-4 -9 -4 -14 0 -10 4 4 14 1 23 -6 14 -11 15 -10 1 8 -8
11 -15 21 -16 23 -1 2 -5 -5 -8 -15z"/>
<path d="M979 943 l-24 -28 25 21 c14 12 32 24 40 27 13 5 13 6 -1 6 -8 1 -26
-11 -40 -26z"/>
<path d="M389 959 c-7 -36 -8 -46 -4 -58 4 -11 9 -11 24 3 18 17 20 16 30 -1
6 -10 11 -13 11 -7 0 5 -5 15 -11 21 -8 8 -8 13 0 17 6 4 11 3 11 -1 0 -5 7
-18 15 -29 14 -17 14 -16 1 13 -18 37 -32 48 -41 33 -5 -8 -11 -7 -21 1 -8 6
-14 10 -15 8z m38 -18 c23 20 14 3 -12 -21 l-25 -24 2 27 c2 17 6 23 12 17 6
-6 14 -6 23 1z"/>
<path d="M636 948 c3 -5 9 -7 12 -4 3 3 12 0 21 -6 13 -10 14 -10 4 2 -15 16
-46 23 -37 8z"/>
<path d="M730 954 c0 -6 6 -17 14 -23 10 -9 17 -7 27 6 13 16 12 17 -3 5 -14
-11 -18 -10 -27 5 -6 10 -11 13 -11 7z"/>
<path d="M334 938 c-3 -5 0 -7 6 -6 7 2 14 -5 15 -16 2 -10 9 -24 16 -30 9 -8
9 -6 2 9 -6 11 -9 27 -8 36 3 16 -22 22 -31 7z"/>
<path d="M496 942 c-3 -5 1 -9 9 -9 8 0 12 4 9 9 -3 4 -7 8 -9 8 -2 0 -6 -4
-9 -8z"/>
<path d="M534 938 c-4 -7 -4 -10 1 -6 4 4 15 2 24 -5 14 -11 14 -10 2 6 -16
20 -18 21 -27 5z"/>
<path d="M576 938 c3 -5 9 -7 12 -4 3 3 11 1 18 -5 8 -7 14 -7 19 1 7 12 8 11
-27 14 -15 2 -25 -1 -22 -6z"/>
<path d="M1103 935 c0 -8 4 -12 9 -9 5 3 6 10 3 15 -9 13 -12 11 -12 -6z"/>
<path d="M1336 923 c-6 -14 -5 -15 5 -6 7 7 10 15 7 18 -3 3 -9 -2 -12 -12z"/>
<path d="M1383 925 c0 -8 4 -12 9 -9 5 3 6 10 3 15 -9 13 -12 11 -12 -6z"/>
<path d="M311 923 c-1 -17 16 -25 25 -12 4 7 3 9 -4 5 -5 -3 -13 0 -15 6 -4 9
-6 10 -6 1z"/>
<path d="M1545 821 c3 -3 17 -6 31 -7 13 0 22 2 19 5 -3 3 -17 6 -31 7 -13 0
-22 -2 -19 -5z"/>
<path d="M3639 144 c0 -5 -2 -17 -4 -27 -2 -11 -1 -16 2 -13 4 3 15 -1 25 -11
11 -9 18 -11 18 -5 0 7 -6 12 -12 12 -7 1 -3 6 9 13 22 12 22 13 3 25 -12 7
-20 8 -20 2 0 -5 5 -10 12 -10 6 0 8 -3 4 -7 -4 -5 -14 1 -22 11 -8 11 -14 16
-15 10z"/>
<path d="M3591 114 c0 -11 3 -14 6 -6 3 7 2 16 -1 19 -3 4 -6 -2 -5 -13z"/>
<path d="M3946 79 c3 -5 -7 -25 -22 -44 l-26 -35 203 1 c168 1 193 3 139 11
-35 5 -69 13 -76 19 -7 5 -24 12 -39 15 -15 3 -33 6 -39 7 -6 1 -14 6 -18 11
-3 5 -19 10 -35 11 -15 2 -28 4 -28 5 0 1 -15 3 -32 4 -18 2 -30 0 -27 -5z"/>
<path d="M3608 63 c6 -2 18 -2 25 0 6 3 1 5 -13 5 -14 0 -19 -2 -12 -5z"/>
<path d="M3658 63 c7 -3 16 -2 19 1 4 3 -2 6 -13 5 -11 0 -14 -3 -6 -6z"/>
<path d="M3668 28 c-6 -13 -23 -18 -80 -21 l-73 -3 87 -2 c57 -1 89 2 94 10 4
6 3 8 -4 4 -6 -3 -12 2 -14 11 -3 17 -4 17 -10 1z"/>
<path d="M3528 23 c7 -3 16 -2 19 1 4 3 -2 6 -13 5 -11 0 -14 -3 -6 -6z"/>
<path d="M3598 23 c7 -3 16 -2 19 1 4 3 -2 6 -13 5 -11 0 -14 -3 -6 -6z"/>
<path d="M3448 3 c7 -3 16 -2 19 1 4 3 -2 6 -13 5 -11 0 -14 -3 -6 -6z"/>
</g>
</svg>
